# xmcd
#
# Track frame offsets:
#	150
#	16723
#	34468
#	48780
#	66745
#	94198
#	110533
#	127205
#	137595
#	154438
#	167098
#
# Disc length: 2402 seconds
#
# Revision: 1
# Processed by: cddbd v1.5.1PL0 Copyright (c) Steve Scherf et al.
# Submitted via: audiograbber 1.83.01
#
DISCID=9d09600b
DTITLE=Scheller - "Ab dafür"
DYEAR=1992
DGENRE=Kölsch-Rock
TTITLE0=Naach Mattes
TTITLE1=Der Konzern
TTITLE2=Kumm jommer
TTITLE3=Wenn dat et wor
TTITLE4=Ich kenn dich
TTITLE5=Die Zick
TTITLE6=Großstadtnächte
TTITLE7=Blues jenoch
TTITLE8=Alaska
TTITLE9=Paar Bier zovill
TTITLE10=Ich bruch en Idee
EXTD=YEAR: 1992
EXTT0=
EXTT1=
EXTT2=
EXTT3=
EXTT4=
EXTT5=
EXTT6=
EXTT7=
EXTT8=
EXTT9=
EXTT10=
PLAYORDER=
